<?xml version="1.0" encoding="UTF-8" standalone="no"?>
<!-- Created with Inkscape (http://www.inkscape.org/) -->

<svg
   xmlns:dc="http://purl.org/dc/elements/1.1/"
   xmlns:cc="http://creativecommons.org/ns#"
   xmlns:rdf="http://www.w3.org/1999/02/22-rdf-syntax-ns#"
   xmlns:svg="http://www.w3.org/2000/svg"
   xmlns="http://www.w3.org/2000/svg"
   xmlns:sodipodi="http://sodipodi.sourceforge.net/DTD/sodipodi-0.dtd"
   xmlns:inkscape="http://www.inkscape.org/namespaces/inkscape"
   width="200"
   height="200"
   viewBox="0 0 52.916665 52.916668"
   version="1.1"
   id="svg1433"
   inkscape:version="0.92.3 (2405546, 2018-03-11)"
   sodipodi:docname="YuntechMark.svg">
  <defs
     id="defs1427" />
  <sodipodi:namedview
     id="base"
     pagecolor="#ffffff"
     bordercolor="#666666"
     borderopacity="1.0"
     inkscape:pageopacity="0.0"
     inkscape:pageshadow="2"
     inkscape:zoom="0.70546875"
     inkscape:cx="-44.385382"
     inkscape:cy="219.80066"
     inkscape:document-units="mm"
     inkscape:current-layer="layer1"
     showgrid="false"
     units="px"
     inkscape:window-width="1364"
     inkscape:window-height="746"
     inkscape:window-x="0"
     inkscape:window-y="0"
     inkscape:window-maximized="1" />
  <metadata
     id="metadata1430">
    <rdf:RDF>
      <cc:Work
         rdf:about="">
        <dc:format>image/svg+xml</dc:format>
        <dc:type
           rdf:resource="http://purl.org/dc/dcmitype/StillImage" />
        <dc:title></dc:title>
      </cc:Work>
    </rdf:RDF>
  </metadata>
  <g
     inkscape:label="Layer 1"
     inkscape:groupmode="layer"
     id="layer1"
     transform="translate(0,-244.08332)">
    <path
       style="display:inline;opacity:1;vector-effect:none;fill:#000000;fill-opacity:1;stroke:none;stroke-width:0.07321262;stroke-linecap:round;stroke-linejoin:bevel;stroke-miterlimit:4;stroke-dasharray:none;stroke-dashoffset:0;stroke-opacity:1;paint-order:fill markers stroke"
       d="m 17.153649,244.20036 c -0.382126,1.26053 1.119024,0.61353 1.832945,0.76393 1.151197,-0.1047 0.09752,-1.21957 -0.741719,-0.76393 -0.363855,0 -0.727596,0 -1.091226,0 z m 16.383418,0 c -0.387841,1.25179 1.093134,0.61056 1.789568,0.76393 1.270574,-0.13672 0.04035,-1.23592 -0.836999,-0.76393 -0.317559,0 -0.635119,0 -0.952569,0 z M 16.62894,245.3557 c -0.387843,1.25216 1.093692,0.61068 1.790575,0.7641 0.696884,-0.19845 2.180436,0.39997 2.381756,-0.30051 0.108731,-0.96877 -1.470775,-0.22808 -2.086053,-0.46359 -0.695538,0 -1.390851,0 -2.086278,0 z m 15.547992,0 c -0.387957,1.25181 1.092794,0.61087 1.789452,0.7641 0.697333,-0.19826 2.180884,0.39968 2.382766,-0.30051 0.10873,-0.96889 -1.471336,-0.22806 -2.087064,-0.46359 -0.695089,0 -1.390179,0 -2.085154,0 z m -17.073242,0.70089 c 0.0482,0.20228 0.369569,-0.0611 0,0 z m 22.584523,0 c -0.03026,0.20461 0.217461,-0.0411 0,0 z m 0.0751,0 c -0.01681,0.23479 0.279897,-0.0706 0,0 z m -24.400434,0.45498 c -0.383246,1.26964 1.142679,0.60558 1.856711,0.76375 0.829265,0.42249 2.234464,-0.52963 0.98799,-0.76375 -0.948197,0 -1.896504,0 -2.844701,0 z m 4.628214,0 c -0.383247,1.29391 1.207018,0.58877 1.928337,0.76375 0.66292,-0.23608 2.299031,0.51384 2.242537,-0.45078 -0.17991,-0.72353 -1.679155,-0.11053 -2.373349,-0.31297 -0.599137,0 -1.198388,0 -1.797525,0 z m 12.825471,0 c -0.383133,1.29391 1.207021,0.58877 1.928338,0.76375 0.662808,-0.23608 2.29892,0.51384 2.242538,-0.45078 -0.179799,-0.72353 -1.679046,-0.11053 -2.37335,-0.31297 -0.599248,0 -1.198387,0 -1.797526,0 z m 5.506576,0 c -0.382351,1.27596 1.160163,0.60217 1.877895,0.76375 0.830836,0.42993 2.205433,-0.53853 0.966916,-0.76375 -0.948196,0 -1.896503,0 -2.844811,0 z m -24.98825,1.15534 c -0.29032,1.1921 1.339402,0.43939 2.01947,0.64849 0.367441,-1.21394 -1.388161,-0.42366 -2.01947,-0.64849 z m 2.490822,0 c -0.383359,1.2941 1.206571,0.58927 1.928339,0.7641 0.673231,-0.23278 2.308222,0.50878 2.264057,-0.45078 -0.179462,-0.72412 -1.679044,-0.11086 -2.37346,-0.31332 -0.606313,0 -1.212624,0 -1.818936,0 z m 5.527089,0 c -0.383359,1.2941 1.206682,0.58927 1.928337,0.7641 0.662246,-0.23623 2.298471,0.51411 2.241415,-0.45078 -0.179462,-0.72412 -1.679044,-0.11086 -2.37346,-0.31332 -0.598802,0 -1.197603,0 -1.796292,0 z m 10.103066,0 c -0.383359,1.2941 1.206793,0.58927 1.928337,0.7641 0.662247,-0.23623 2.298468,0.51411 2.241525,-0.45078 -0.17946,-0.72412 -1.679154,-0.11086 -2.373459,-0.31332 -0.598688,0 -1.197601,0 -1.796403,0 z m 5.501755,0 c -0.38336,1.2941 1.206681,0.58927 1.92845,0.7641 0.67312,-0.23278 2.308221,0.50878 2.263944,-0.45078 -0.179347,-0.72412 -1.679041,-0.11086 -2.373347,-0.31332 -0.606312,0 -1.212734,0 -1.819047,0 z m 4.663859,0 c -0.290323,1.19206 1.339175,0.43941 2.019357,0.64849 0.367442,-1.21391 -1.388162,-0.42368 -2.019357,-0.64849 z m -28.199494,1.15551 c -0.383245,1.29411 1.206795,0.58928 1.928451,0.76412 1.102659,-0.4873 -0.384704,-1.07603 -1.148956,-0.76412 -0.259832,0 -0.519664,0 -0.779495,0 z m 3.769805,0 c -0.38336,1.29411 1.206681,0.58928 1.928338,0.76412 0.672782,-0.23293 2.307884,0.50898 2.263159,-0.45079 -0.17946,-0.72413 -1.679042,-0.11086 -2.37346,-0.31333 -0.605974,0 -1.212175,0 -1.818037,0 z m 5.52294,0 c -0.383358,1.29411 1.206683,0.58928 1.928337,0.76412 0.661463,-0.23651 2.297686,0.51449 2.239845,-0.45079 -0.179572,-0.72413 -1.679042,-0.11086 -2.373459,-0.31333 -0.598353,0 -1.196482,0 -1.794723,0 z m 7.380996,0 c -0.383358,1.29411 1.206683,0.58928 1.928337,0.76412 0.661462,-0.23651 2.297799,0.51449 2.239847,-0.45079 -0.17935,-0.72413 -1.679044,-0.11086 -2.373349,-0.31333 -0.59824,0 -1.196593,0 -1.794835,0 z m 5.49671,0 c -0.383246,1.29411 1.206683,0.58928 1.928451,0.76412 0.672673,-0.23293 2.307773,0.50898 2.263049,-0.45079 -0.179348,-0.72413 -1.679155,-0.11086 -2.373347,-0.31333 -0.606087,0 -1.212175,0 -1.818153,0 z m 5.698368,0 c -0.38336,1.29411 1.206681,0.58928 1.928338,0.76412 1.103107,-0.48709 -0.384481,-1.07613 -1.148732,-0.76412 -0.259942,0 -0.519775,0 -0.779606,0 z m -30.0998076,0.29721 c -0.2424574,1.227 1.8764386,-0.10761 0.3623971,0 -0.1207243,0 -0.2415607,0 -0.3623971,0 z m 33.6675076,0 c -0.215445,1.24531 1.90435,-0.16467 0.294916,0 -0.09752,0 -0.196611,0 -0.294916,0 z m -34.8027868,0.85848 c -0.3699073,1.28053 1.1997328,0.59631 1.9284502,0.76394 1.0448196,-0.65746 -0.5790731,-0.96431 -1.3362622,-0.76394 -0.197396,0 -0.394792,0 -0.592188,0 z m 3.5646728,0 c -0.383359,1.294 1.206794,0.58903 1.928225,0.76394 1.104455,-0.48623 -0.383357,-1.07624 -1.148057,-0.76394 -0.259943,0 -0.52,0 -0.780168,0 z m 4.937591,0 c -0.38336,1.294 1.206681,0.58903 1.928225,0.76394 0.67256,-0.23303 2.307662,0.50915 2.262489,-0.4508 -0.179575,-0.72382 -1.679045,-0.11063 -2.373348,-0.31314 -0.605865,0 -1.211615,0 -1.817366,0 z m 5.518456,0 c -0.383246,1.294 1.206907,0.58903 1.928339,0.76394 0.660901,-0.23671 2.297235,0.51481 2.238612,-0.4508 -0.179686,-0.72382 -1.679155,-0.11063 -2.373461,-0.31314 -0.597793,0 -1.195698,0 -1.79349,0 z m 4.658703,0 c -0.383247,1.294 1.206907,0.58903 1.928338,0.76394 0.660901,-0.23671 2.29746,0.51481 2.238612,-0.4508 -0.179573,-0.72382 -1.679043,-0.11063 -2.37346,-0.31314 -0.59768,0 -1.195585,0 -1.79349,0 z m 5.492003,0 c -0.383246,1.294 1.206908,0.58903 1.92845,0.76394 0.672223,-0.23307 2.307439,0.50918 2.262264,-0.4508 -0.179687,-0.72382 -1.679155,-0.11063 -2.37346,-0.31314 -0.605752,0 -1.211501,0 -1.817254,0 z m 6.864694,0 c -0.383359,1.294 1.206795,0.58903 1.928337,0.76394 1.104007,-0.48645 -0.383693,-1.07615 -1.148278,-0.76394 -0.260056,0 -0.520003,0 -0.780059,0 z m 3.56647,0 c -0.370022,1.28053 1.19962,0.59631 1.928337,0.76394 1.044931,-0.65746 -0.578962,-0.96431 -1.336264,-0.76394 -0.197394,0 -0.394792,0 -0.592073,0 z m -34.4482376,1.15551 c -0.3833585,1.29413 1.2067947,0.5893 1.9284506,0.76412 1.113756,-0.47902 -0.3737188,-1.07979 -1.1421172,-0.76412 -0.2620738,0 -0.5242596,0 -0.7863334,0 z m 3.6087246,0 c -0.383357,1.29413 1.206684,0.5893 1.928338,0.76412 1.105016,-0.48554 -0.382348,-1.07682 -1.147497,-0.76412 -0.260167,0 -0.520561,0 -0.780841,0 z m 6.105265,0 c -0.383358,1.29413 1.206683,0.5893 1.928339,0.76412 0.671997,-0.23315 2.3071,0.50935 2.261478,-0.45077 -0.17946,-0.72414 -1.679042,-0.11086 -2.373459,-0.31335 -0.605415,0 -1.210942,0 -1.816358,0 z m 5.514085,0 c -0.383245,1.29413 1.206796,0.5893 1.928451,0.76412 1.391188,0 2.782488,0 4.173788,0 0.387843,-1.25217 -1.093693,-0.61068 -1.790576,-0.76412 -1.437146,0 -2.874404,0 -4.311663,0 z m 7.423704,0 c -0.383357,1.29413 1.206684,0.5893 1.92834,0.76412 0.672109,-0.23313 2.307213,0.50933 2.261702,-0.45077 -0.17946,-0.72414 -1.679154,-0.11086 -2.373349,-0.31335 -0.605527,0 -1.211167,0 -1.816693,0 z m 8.031025,0 c -0.383358,1.29413 1.206683,0.5893 1.928338,0.76412 1.105016,-0.48554 -0.382463,-1.07682 -1.147496,-0.76412 -0.260281,0 -0.520673,0 -0.780842,0 z m 3.565233,0 c -0.383358,1.29413 1.206683,0.5893 1.928338,0.76412 1.113871,-0.47902 -0.373717,-1.07979 -1.142005,-0.76412 -0.262184,0 -0.524257,0 -0.786333,0 z m -34.0477261,1.15551 c -0.3833585,1.29412 1.2066825,0.5893 1.9283381,0.76413 1.113533,-0.47925 -0.3738306,-1.07971 -1.1421169,-0.76413 -0.2621858,0 -0.5242596,0 -0.7862212,0 z m 3.6067081,0 c -0.38336,1.29412 1.206682,0.5893 1.928337,0.76413 1.106248,-0.48469 -0.381228,-1.07724 -1.146713,-0.76413 -0.260616,0 -0.521119,0 -0.781624,0 z m 7.27305,0 c -0.383358,1.29412 1.206683,0.5893 1.928339,0.76413 0.671662,-0.23328 2.306989,0.50953 2.260806,-0.45079 -0.179349,-0.72411 -1.679043,-0.11086 -2.373349,-0.31334 -0.605303,0 -1.210606,0 -1.815796,0 z m 5.509825,0 c -0.381451,1.25957 1.117122,0.61455 1.831379,0.76413 0.745083,0.27002 2.299927,-0.20471 1.250399,-0.76413 -1.027334,0 -2.054555,0 -3.081778,0 z m 4.696479,0 c -0.383358,1.29412 1.206682,0.5893 1.928337,0.76413 0.671665,-0.23324 2.306878,0.50949 2.261032,-0.45079 -0.17946,-0.72411 -1.679154,-0.11086 -2.373459,-0.31334 -0.605305,0 -1.210606,0 -1.81591,0 z m 9.197243,0 c -0.383359,1.29412 1.206682,0.5893 1.928338,0.76413 1.106245,-0.48468 -0.38123,-1.07724 -1.146827,-0.76413 -0.260503,0 -0.521008,0 -0.781511,0 z m 3.564337,0 c -0.383359,1.29412 1.206682,0.5893 1.928337,0.76413 1.113532,-0.47924 -0.373942,-1.07971 -1.142229,-0.76413 -0.261963,0 -0.524148,0 -0.786108,0 z m -33.6474438,1.15572 c -0.3832464,1.294 1.2069067,0.58901 1.9284498,0.76392 1.113532,-0.47926 -0.374166,-1.07943 -1.1423407,-0.76392 -0.2619616,0 -0.5239233,0 -0.7861091,0 z m 3.6049138,0 c -0.383247,1.294 1.206907,0.58901 1.92845,0.76392 1.107145,-0.48404 -0.380555,-1.07724 -1.146264,-0.76392 -0.260729,0 -0.521458,0 -0.782186,0 z m 8.440502,0 c -0.383248,1.294 1.206905,0.58901 1.92845,0.76392 0.671325,-0.23336 2.306652,0.50965 2.260246,-0.45078 -0.179687,-0.72383 -1.679043,-0.11063 -2.37346,-0.31314 -0.605079,0 -1.210046,0 -1.815236,0 z m 5.50579,0 c -0.0908,0.78273 1.721302,-0.13673 0,0 z m 1.969364,0 c -0.383246,1.294 1.207019,0.58901 1.928451,0.76392 0.671323,-0.23337 2.30654,0.50969 2.260021,-0.45078 -0.179573,-0.72383 -1.679045,-0.11063 -2.373347,-0.31314 -0.60508,0 -1.210046,0 -1.815125,0 z m 10.36357,0 c -0.383358,1.294 1.206795,0.58901 1.928339,0.76392 1.107143,-0.48405 -0.380557,-1.07724 -1.146154,-0.76392 -0.260839,0 -0.521568,0 -0.782185,0 z m 3.562994,0 c -0.38325,1.294 1.206904,0.58901 1.928338,0.76392 1.113644,-0.47926 -0.374056,-1.07943 -1.142117,-0.76392 -0.262188,0 -0.524149,0 -0.786221,0 z m -33.2468234,1.1555 c -0.3833585,1.29401 1.2067944,0.58903 1.9283384,0.76394 1.113195,-0.47949 -0.374391,-1.07934 -1.1424534,-0.76394 -0.2619617,0 -0.5240354,0 -0.785885,0 z m 3.6030084,0 c -0.383247,1.29401 1.206907,0.58903 1.928451,0.76394 1.108265,-0.48318 -0.379323,-1.07766 -1.145481,-0.76394 -0.261065,0 -0.522018,0 -0.78297,0 z m 9.608288,0 c -0.383247,1.29401 1.206905,0.58903 1.928337,0.76394 0.713922,0.049 2.358663,0.16904 1.602484,-0.76394 -1.176866,0 -2.353956,0 -3.530821,0 z m 5.252235,0 c -0.383246,1.29401 1.206907,0.58903 1.928338,0.76394 0.713923,0.049 2.358552,0.16901 1.602484,-0.76394 -1.17709,0 -2.353844,0 -3.530822,0 z m 11.021219,0 c -0.383246,1.29401 1.206908,0.58903 1.928451,0.76394 1.108265,-0.48318 -0.379435,-1.07766 -1.145481,-0.76394 -0.260951,0 -0.522015,0 -0.78297,0 z m 3.561985,0 c -0.383246,1.29401 1.206908,0.58903 1.928451,0.76394 1.113196,-0.47948 -0.37439,-1.07934 -1.142455,-0.76394 -0.262073,0 -0.523923,0 -0.785996,0 z m -32.846537,1.15552 c -0.3832465,1.29411 1.206795,0.58929 1.928338,0.76412 1.113309,-0.47947 -0.374167,-1.07962 -1.142341,-0.76412 -0.2620738,0 -0.5239233,0 -0.785997,0 z m 3.601104,0 c -0.383248,1.29411 1.206681,0.58929 1.928449,0.76412 1.109386,-0.48228 -0.378091,-1.07833 -1.144806,-0.76412 -0.26129,0 -0.522466,0 -0.783643,0 z m 10.776071,0 c -0.383357,1.29411 1.206796,0.58929 1.92834,0.76412 1.182469,-0.42816 -0.303101,-1.1023 -1.098625,-0.76412 -0.276534,0 -0.55318,0 -0.829715,0 z m 3.886158,0 c -0.383358,1.29411 1.206795,0.58929 1.928338,0.76412 1.182132,-0.42835 -0.303436,-1.10221 -1.098736,-0.76412 -0.276534,0 -0.553068,0 -0.829602,0 z m 10.822256,0 c -0.383247,1.29411 1.206682,0.58929 1.928338,0.76412 1.10916,-0.48251 -0.378202,-1.07823 -1.144919,-0.76412 -0.261177,0 -0.522242,0 -0.783419,0 z m 3.560751,0 c -0.383359,1.29411 1.206682,0.58929 1.92845,0.76412 1.11342,-0.47926 -0.373946,-1.0797 -1.142342,-0.76412 -0.261963,0 -0.524148,0 -0.786108,0 z m -32.4463659,1.1557 c -0.3831343,1.294 1.2070189,0.58902 1.9284499,0.76392 1.113308,-0.47947 -0.374391,-1.07932 -1.1423408,-0.76392 -0.2620737,0 -0.5240354,0 -0.7861091,0 z m 3.5995329,0 c -0.383245,1.294 1.206908,0.58902 1.92845,0.76392 1.110284,-0.48164 -0.377416,-1.07834 -1.144245,-0.76392 -0.261401,0 -0.522804,0 -0.784205,0 z m 10.784032,0 c -0.383133,1.294 1.20702,0.58902 1.928451,0.76392 0.828704,-0.86186 -0.748109,-0.86215 -1.453625,-0.76392 -0.158274,0 -0.316549,0 -0.474826,0 z m 3.679794,0 c -0.383246,1.294 1.206907,0.58902 1.928338,0.76392 0.829152,-0.86158 -0.747773,-0.86233 -1.453288,-0.76392 -0.158387,0 -0.316662,0 -0.47505,0 z m 10.623067,0 c -0.383246,1.294 1.206905,0.58902 1.928451,0.76392 1.110394,-0.48164 -0.377419,-1.07834 -1.144249,-0.76392 -0.2614,0 -0.52269,0 -0.784202,0 z m 3.559853,0 c -0.383247,1.294 1.206907,0.58902 1.928337,0.76392 1.11331,-0.47948 -0.374278,-1.07932 -1.142339,-0.76392 -0.261963,0 -0.524035,0 -0.785998,0 z M 9.4114886,258.0669 c -0.3833585,1.29411 1.2066824,0.58929 1.9283364,0.7641 1.113197,-0.47945 -0.374277,-1.07959 -1.142451,-0.7641 -0.2619621,0 -0.5240358,0 -0.7858854,0 z m 3.5975164,0 c -0.383247,1.29411 1.206794,0.58929 1.92845,0.7641 1.11118,-0.48097 -0.376185,-1.07891 -1.143686,-0.7641 -0.261514,0 -0.52314,0 -0.784764,0 z m 10.585626,0 c -0.383133,1.29411 1.206796,0.58929 1.928451,0.7641 0.828704,-0.86187 -0.747997,-0.86243 -1.453625,-0.7641 -0.158274,0 -0.316549,0 -0.474826,0 z m 3.679794,0 c -0.383358,1.29411 1.206795,0.58929 1.928338,0.7641 0.829152,-0.86159 -0.747549,-0.86261 -1.453288,-0.7641 -0.158387,0 -0.316662,0 -0.47505,0 z m 10.424101,0 c -0.38336,1.29411 1.206795,0.58929 1.928337,0.7641 1.111629,-0.48077 -0.375846,-1.079 -1.14346,-0.7641 -0.261627,0 -0.523253,0 -0.784877,0 z m 3.558508,0 c -0.383246,1.29411 1.206795,0.58929 1.928451,0.7641 1.113306,-0.47944 -0.374168,-1.0796 -1.142343,-0.7641 -0.262072,0 -0.524035,0 -0.786108,0 z m -31.6453471,1.15551 c -0.3832464,1.29411 1.2067951,0.58928 1.9284501,0.76411 1.11286,-0.47966 -0.374615,-1.0795 -1.142677,-0.76411 -0.26185,0 -0.5238114,0 -0.7857731,0 z m 3.5956101,0 c -0.383245,1.29411 1.206682,0.58928 1.92845,0.76411 1.112301,-0.48011 -0.375176,-1.07931 -1.143014,-0.76411 -0.261849,0 -0.523586,0 -0.785436,0 z m 10.387334,0 c -0.383133,1.29411 1.206796,0.58928 1.928451,0.76411 0.828704,-0.86189 -0.747997,-0.86245 -1.453625,-0.76411 -0.158274,0 -0.316549,0 -0.474826,0 z m 3.679794,0 c -0.383358,1.29411 1.206795,0.58928 1.928338,0.76411 0.829152,-0.86159 -0.747549,-0.86261 -1.453288,-0.76411 -0.158387,0 -0.316662,0 -0.47505,0 z m 10.225134,0 c -0.383356,1.29411 1.206795,0.58928 1.928341,0.76411 1.112411,-0.48011 -0.375064,-1.07931 -1.143016,-0.76411 -0.261738,0 -0.523475,0 -0.785325,0 z m 3.5575,0 c -0.383245,1.29411 1.206683,0.58928 1.928451,0.76411 1.112862,-0.47966 -0.374616,-1.0795 -1.14279,-0.76411 -0.261738,0 -0.52381,0 -0.785661,0 z m -31.1979825,1.15571 c -0.1391076,0.32057 -2.3998018,0.47743 -0.7393663,0.76411 0.9870918,0 1.9741838,0 2.9613878,0 0.383358,-1.29412 -1.206682,-0.5893 -1.928338,-0.76411 h -0.148411 z m 3.5467375,0 c -0.383359,1.29409 1.206683,0.58928 1.928339,0.76411 1.372355,0.25891 1.328416,-0.64923 0.251649,-0.67013 -0.50173,-0.21549 -1.526709,-0.0336 -2.179988,-0.0939 z m 10.188817,0 c -0.383133,1.29409 1.206796,0.58928 1.928451,0.76411 0.828704,-0.8619 -0.747997,-0.86245 -1.453625,-0.76411 -0.158274,0 -0.316549,0 -0.474826,0 z m 3.679794,0 c -0.383358,1.29409 1.206795,0.58928 1.928338,0.76411 0.829152,-0.86161 -0.747549,-0.86262 -1.453288,-0.76411 -0.158387,0 -0.316662,0 -0.47505,0 z m 10.117638,0 c -0.383246,1.29409 1.206795,0.58928 1.928452,0.76411 0.979803,-0.75473 -0.651486,-0.92373 -1.382223,-0.76411 -0.181927,0 -0.364078,0 -0.546229,0 z m 3.464687,0 c -0.383247,1.29409 1.206681,0.58928 1.92845,0.76411 0.735553,0.28437 2.551016,-0.35196 1.033049,-0.49182 -0.837671,-0.0929 -1.440395,-0.42377 -2.519516,-0.27229 -0.147177,0 -0.294581,0 -0.441983,0 z m -4.335426,0.25782 c -0.09752,1.36948 1.862876,-0.29481 0.123751,0 z m -31.1255718,0.89767 c -0.3832464,1.29402 1.2069068,0.58904 1.9283381,0.76394 1.6083123,0 3.2165127,0 4.8248227,0 0.383248,-1.294 -1.206905,-0.58902 -1.928336,-0.76394 -1.6083124,0 -3.2165125,0 -4.8248248,0 z m 8.2082438,0 c -0.382688,1.27514 1.157024,0.60309 1.874309,0.76394 0.98967,0 1.979228,0 2.968786,0 0.383358,-1.294 -1.206795,-0.58902 -1.928339,-0.76394 -0.97151,0 -1.943134,0 -2.914756,0 z m 9.990635,0 c -0.383133,1.29402 1.20702,0.58904 1.928451,0.76394 0.828704,-0.86186 -0.748109,-0.86217 -1.453625,-0.76394 -0.158274,0 -0.316549,0 -0.474826,0 z m 3.679794,0 c -0.383246,1.29402 1.206907,0.58904 1.928338,0.76394 0.829152,-0.86158 -0.747773,-0.86233 -1.453288,-0.76394 -0.158387,0 -0.316662,0 -0.47505,0 z m 7.254108,0 c -0.383246,1.29402 1.206905,0.58904 1.928451,0.76394 0.971508,0 1.943021,0 2.914643,0 0.382686,-1.27506 -1.156801,-0.60312 -1.873972,-0.76394 -0.989781,0 -1.979454,0 -2.969122,0 z m 6.260624,0 c -0.383357,1.29402 1.206794,0.58904 1.92834,0.76394 1.608198,0 3.216398,0 4.824599,0 0.383247,-1.294 -1.206908,-0.58902 -1.928338,-0.76394 -1.6082,0 -3.216401,0 -4.824601,0 z m -38.5243901,1.15552 c -0.3832464,1.29412 1.2067947,0.5893 1.9284502,0.76412 2.0896402,0 4.1790561,0 6.2686959,0 0.383359,-1.29411 -1.2067943,-0.58928 -1.9283378,-0.76412 -2.0896401,0 -4.1791681,0 -6.2688083,0 z m 12.6479151,0 c -0.383358,1.29412 1.206683,0.5893 1.928339,0.76412 1.193343,0 2.386687,0 3.58003,0 0.383358,-1.29411 -1.206683,-0.58928 -1.92845,-0.76412 -1.193232,0 -2.386688,0 -3.579919,0 z m 8.681949,0 c -0.383133,1.29412 1.206796,0.5893 1.928451,0.76412 0.828704,-0.86189 -0.747997,-0.86244 -1.453625,-0.76412 -0.158274,0 -0.316549,0 -0.474826,0 z m 3.679794,0 c -0.383358,1.29412 1.206795,0.5893 1.928338,0.76412 0.829152,-0.8616 -0.747549,-0.86261 -1.453288,-0.76412 -0.158387,0 -0.316662,0 -0.47505,0 z m 5.280147,0 c -0.383246,1.29412 1.206795,0.5893 1.92845,0.76412 1.193455,0 2.386801,0 3.580255,0 0.383246,-1.29411 -1.206795,-0.58928 -1.92845,-0.76412 -1.193455,0 -2.3868,0 -3.580255,0 z m 9.921363,0 c -0.383358,1.29412 1.206796,0.5893 1.928338,0.76412 2.089639,0 4.179167,0 6.26881,0 0.383358,-1.29411 -1.206683,-0.58928 -1.928451,-0.76412 -2.089529,0 -4.179058,0 -6.268697,0 z m -29.847487,0.66462 c 0.11837,0.31111 0.967252,-0.0859 0,0 z m 27.215091,0 c 0.764028,0.20971 0.05605,0.0436 0,0 z m -39.76357923,0.49109 c -0.38324641,1.294 1.20690673,0.58902 1.92833803,0.76392 1.7714078,0 3.5429276,0 5.3143353,0 0.3832464,-1.29401 -1.2069067,-0.58902 -1.9283381,-0.76392 -1.7714077,0 -3.5429275,0 -5.31433523,0 z m 9.43386983,0 c -0.3832464,1.294 1.2067944,0.58902 1.9283364,0.76392 1.199957,0 2.400026,0 3.599872,0 0.383358,-1.29401 -1.206795,-0.58902 -1.928339,-0.76392 -1.199845,0 -2.399912,0 -3.5998694,0 z m 7.3722524,0 c -0.383359,1.294 1.206795,0.58902 1.928338,0.76392 1.193568,0 2.386912,0 3.580591,0 0.383246,-1.29401 -1.206906,-0.58902 -1.928338,-0.76392 -1.19368,0 -2.387135,0 -3.580591,0 z m 6.708549,0 c -0.383133,1.294 1.20702,0.58902 1.928451,0.76392 0.828704,-0.86186 -0.748109,-0.86216 -1.453625,-0.76392 -0.158274,0 -0.316549,0 -0.474826,0 z m 3.679794,0 c -0.383246,1.294 1.206907,0.58902 1.928338,0.76392 0.829152,-0.86158 -0.747773,-0.86233 -1.453288,-0.76392 -0.158387,0 -0.316662,0 -0.47505,0 z m 3.306187,0 c -0.383246,1.294 1.206907,0.58902 1.92845,0.76392 1.193455,0 2.387022,0 3.580589,0 0.38336,-1.29401 -1.206791,-0.58902 -1.928337,-0.76392 -1.193568,0 -2.387135,0 -3.580702,0 z m 7.286949,0 c -0.383246,1.294 1.20702,0.58902 1.92845,0.76392 1.200182,0 2.400141,0 3.600209,0 0.383246,-1.29401 -1.206908,-0.58902 -1.92845,-0.76392 -1.199956,0 -2.400028,0 -3.600209,0 z m 7.747653,0 c -0.383246,1.294 1.206908,0.58902 1.92845,0.76392 1.771297,0 3.542818,0 5.314224,0 0.383246,-1.29401 -1.206795,-0.58902 -1.928339,-0.76392 -1.771405,0 -3.542926,0 -5.314335,0 z m -45.53525423,1.15551 c -0.38324641,1.294 1.20690673,0.58903 1.92833803,0.76394 0.7126882,-0.22158 2.4006986,0.54466 2.2011728,-0.60106 -0.501953,-0.39404 -1.7376677,-0.0447 -2.512007,-0.16288 -0.539168,0 -1.07822378,0 -1.61750383,0 z m 6.31902593,0 c -0.3833585,1.294 1.2067947,0.58903 1.9283382,0.76394 2.8969341,0 5.7938691,0 8.6906911,0 0.383695,-1.28473 -1.181236,-0.59551 -1.899753,-0.76394 -2.906352,0 -5.8129256,0 -8.7192763,0 z m 12.4606083,0 c -0.383248,1.294 1.206906,0.58903 1.928449,0.76394 0.69879,-0.21072 2.289614,0.48202 2.275828,-0.45079 -0.171951,-0.7214 -1.655167,-0.11434 -2.34286,-0.31315 -0.620434,0 -1.240983,0 -1.861417,0 z m 4.735037,0 c -0.383133,1.294 1.20702,0.58903 1.928451,0.76394 0.828704,-0.86189 -0.748109,-0.86217 -1.453625,-0.76394 -0.158274,0 -0.316549,0 -0.474826,0 z m 3.679794,0 c -0.383246,1.294 1.206907,0.58903 1.928338,0.76394 0.829152,-0.86158 -0.747773,-0.86234 -1.453288,-0.76394 -0.158387,0 -0.316662,0 -0.47505,0 z m 2.637438,0 c -0.385264,1.23569 1.051769,0.62543 1.749663,0.76394 0.733424,-0.18598 2.21126,0.38202 2.454616,-0.30054 0.07846,-0.98457 -1.565828,-0.22549 -2.225048,-0.4634 -0.65978,0 -1.31956,0 -1.979231,0 z m 5.979834,0 c -0.383582,1.28471 1.18146,0.59552 1.899865,0.76394 2.906464,0 5.812928,0 8.719276,0 0.383249,-1.29402 -1.207017,-0.58903 -1.928448,-0.76394 -2.896825,0 -5.79376,0 -8.690693,0 z m 12.83668,0 c -0.383247,1.294 1.20702,0.58903 1.92845,0.76394 0.71213,-0.22215 2.401595,0.54562 2.201061,-0.60106 -0.500606,-0.39386 -1.734529,-0.0449 -2.507636,-0.16288 -0.540623,0 -1.081249,0 -1.621875,0 z m -48.64841723,1.15551 c 0.04035353,1.06159 1.96656183,-0.23954 0.26162537,0 H 0.19317383 Z m 3.20407003,0 c -0.3831344,1.29412 1.2067946,0.58929 1.9284502,0.76412 2.0852685,0 4.1706491,0 6.255916,0 0.383247,-1.29412 -1.206793,-0.58929 -1.9283366,-0.76412 -2.0853806,0 -4.170537,0 -6.2560296,0 z m 10.1901622,0 c -0.38336,1.29412 1.206681,0.58929 1.928338,0.76412 1.197153,0 2.394309,0 3.591463,0 0.383247,-1.29412 -1.206682,-0.58929 -1.92845,-0.76412 -1.197154,0 -2.394198,0 -3.591351,0 z m 7.480535,0 c -0.383248,1.29412 1.206681,0.58929 1.928449,0.76412 0.93934,0 1.878793,0 2.818134,0 0.383359,-1.29412 -1.206682,-0.58929 -1.928338,-0.76412 -0.93934,0 -1.878793,0 -2.818245,0 z m 6.319698,0 c -0.383358,1.29412 1.206795,0.58929 1.928338,0.76412 0.939453,0 1.878905,0 2.818245,0 0.383246,-1.29412 -1.206683,-0.58929 -1.92845,-0.76412 -0.93934,0 -1.878792,0 -2.818133,0 z m 6.641407,0 c -0.383359,1.29412 1.206795,0.58929 1.928337,0.76412 1.197154,0 2.39431,0 3.591463,0 0.383359,-1.29412 -1.20657,-0.58929 -1.928338,-0.76412 -1.197154,0 -2.394309,0 -3.591462,0 z m 7.525594,0 c -0.383358,1.29412 1.206683,0.58929 1.928452,0.76412 2.085269,0 4.170537,0 6.255693,0 0.38347,-1.29412 -1.206681,-0.58929 -1.928227,-0.76412 -2.085267,0 -4.170647,0 -6.255918,0 z m 10.41323,0 c 0.04035,1.06159 1.966561,-0.23954 0.261512,0 h -0.148186 z m -51.685358,1.1557 c -0.38324641,1.294 1.2069067,0.58902 1.9284502,0.76394 2.0863894,0 4.1727788,0 6.2592803,0 0.3832465,-1.29401 -1.2069067,-0.58904 -1.9283381,-0.76394 -2.0865015,0 -4.1728909,0 -6.2593924,0 z m 15.280871,0 c -0.383359,1.294 1.206794,0.58902 1.928337,0.76394 1.197044,0 2.394311,0 3.591353,0 0.383247,-1.29401 -1.206908,-0.58904 -1.928451,-0.76394 -1.197041,0 -2.394085,0 -3.591239,0 z m 7.356559,0 c -0.383357,1.294 1.206908,0.58902 1.92834,0.76394 1.203767,0.50311 1.350161,-1.22546 0.07622,-0.76394 -0.668301,0 -1.336487,0 -2.004563,0 z m 4.467697,0 c -0.383246,1.294 1.206907,0.58902 1.928338,0.76394 1.203881,0.50311 1.35005,-1.22546 0.07622,-0.76394 -0.668301,0 -1.336599,0 -2.004786,0 z m 4.665765,0 c -0.38336,1.294 1.206794,0.58902 1.928225,0.76394 1.197155,0 2.394309,0 3.591577,0 0.383246,-1.29401 -1.206907,-0.58904 -1.92845,-0.76394 -1.197156,0 -2.39431,0 -3.591352,0 z m 12.612608,0 c -0.383247,1.294 1.206904,0.58902 1.92845,0.76394 2.086388,0 4.172777,0 6.25928,0 0.383246,-1.29401 -1.206908,-0.58904 -1.928451,-0.76394 -2.086391,0 -4.172891,0 -6.259279,0 z m -44.49402383,1.15553 c -0.3833585,1.29399 1.20690673,0.58901 1.92833803,0.76391 1.0861825,0 2.1723649,0 3.2585473,0 0.3832464,-1.294 -1.2069067,-0.58901 -1.9284502,-0.76391 -1.0860703,0 -2.1722527,0 -3.25843513,0 z m 17.36703583,0 c -0.383358,1.29399 1.206795,0.58901 1.928339,0.76391 1.197155,0 2.394308,0 3.591576,0 0.383133,-1.294 -1.207019,-0.58901 -1.92845,-0.76391 -1.197156,0 -2.39431,0 -3.591465,0 z m 7.354207,0 c -0.249632,1.36915 1.991894,-0.0906 0.327872,0 -0.10873,0 -0.218581,0 -0.327872,0 z m 2.494408,0 c -0.249631,1.36915 1.991783,-0.0906 0.327759,0 -0.10873,0 -0.218468,0 -0.327759,0 z m 2.689787,0 c -0.383358,1.29399 1.206795,0.58901 1.928338,0.76391 1.197153,0 2.394309,0 3.591465,0 0.383247,-1.294 -1.206908,-0.58901 -1.928341,-0.76391 -1.197153,0 -2.394418,0 -3.591462,0 z m 17.700066,0 c -0.383359,1.29399 1.206794,0.58901 1.928338,0.76391 1.086069,0 2.172254,0 3.258435,0 0.383134,-1.294 -1.206908,-0.58901 -1.92845,-0.76391 -1.086069,0 -2.172254,0 -3.258323,0 z m -47.60550383,1.1555 c -0.3833585,1.29411 1.20679463,0.58928 1.92833803,0.76411 0.770304,-1.01036 -0.9200603,-0.76945 -1.63297263,-0.76411 H 0.20584036 Z m 19.34290083,0 c -0.383245,1.29411 1.206684,0.58928 1.928452,0.76411 1.197153,0 2.394309,0 3.591463,0 0.383247,-1.29411 -1.206794,-0.58928 -1.928338,-0.76411 -1.197155,0 -2.394309,0 -3.591577,0 z m 8.586559,0 c -0.383246,1.29411 1.206795,0.58928 1.928452,0.76411 1.197152,0 2.394308,0 3.591461,0 0.383359,-1.29411 -1.206904,-0.58928 -1.928338,-0.76411 -1.197152,0 -2.39442,0 -3.591575,0 z m 22.787412,0 c -0.383247,1.29411 1.206682,0.58928 1.928338,0.76411 0.770081,-1.01036 -0.920172,-0.76945 -1.632972,-0.76411 h -0.148411 z m -50.71687183,1.15552 c -0.3833585,1.29412 1.20679463,0.58929 1.92833803,0.76411 0.770304,-1.01037 -0.9200603,-0.76946 -1.63297263,-0.76411 H 0.20584036 Z m 19.34290083,0 c -0.383245,1.29412 1.206684,0.58929 1.928452,0.76411 1.197153,0 2.394309,0 3.591463,0 0.383247,-1.29412 -1.206794,-0.58929 -1.928338,-0.76411 -1.197155,0 -2.394309,0 -3.591577,0 z m 8.586559,0 c -0.383246,1.29412 1.206795,0.58929 1.928452,0.76411 1.197152,0 2.394308,0 3.591461,0 0.383359,-1.29412 -1.206904,-0.58929 -1.928338,-0.76411 -1.197152,0 -2.39442,0 -3.591575,0 z m 22.787412,0 c -0.383247,1.29412 1.206682,0.58929 1.928338,0.76411 0.770081,-1.01037 -0.920172,-0.76946 -1.632972,-0.76411 H 50.922601 Z M 0.05877417,271.9338 c -0.3833585,1.29401 1.20690673,0.58903 1.92833803,0.76394 1.0861825,0 2.1723649,0 3.2585473,0 0.3832464,-1.29401 -1.2069067,-0.58903 -1.9284502,-0.76394 -1.0860703,0 -2.1722527,0 -3.25843513,0 z m 17.36703583,0 c -0.383358,1.29401 1.206795,0.58903 1.928339,0.76394 1.197267,0 2.394532,0 3.591688,0 0.383245,-1.29401 -1.206908,-0.58903 -1.92845,-0.76394 -1.197155,0 -2.394309,0 -3.591577,0 z m 12.538402,0 c -0.383358,1.29401 1.206795,0.58903 1.928338,0.76394 1.197153,0 2.394309,0 3.591465,0 0.383247,-1.29401 -1.206908,-0.58903 -1.928341,-0.76394 -1.197153,0 -2.394418,0 -3.591462,0 z m 17.700066,0 c -0.383359,1.29401 1.206794,0.58903 1.928338,0.76394 1.086069,0 2.172254,0 3.258435,0 0.383134,-1.29401 -1.206908,-0.58903 -1.92845,-0.76394 -1.086069,0 -2.172254,0 -3.258323,0 z m -22.884261,0.22466 c -0.249632,1.36916 1.991894,-0.0906 0.327872,0 -0.10873,0 -0.218581,0 -0.327872,0 z m 2.494408,0 c -0.249631,1.36916 1.991783,-0.0906 0.327759,0 -0.10873,0 -0.218468,0 -0.327759,0 z m -27.105127,0.93087 c -0.38324641,1.29409 1.2067946,0.58928 1.9284502,0.7641 2.0863894,0 4.1727788,0 6.2592803,0 0.3832465,-1.29411 -1.2067946,-0.58928 -1.9283381,-0.7641 -2.0865015,0 -4.1728909,0 -6.2593924,0 z m 15.280871,0 c -0.383359,1.29409 1.206682,0.58928 1.928337,0.7641 1.197044,0 2.394311,0 3.591353,0 0.383247,-1.29411 -1.206683,-0.58928 -1.928451,-0.7641 -1.197041,0 -2.394085,0 -3.591239,0 z m 7.356559,0 c -0.383357,1.29409 1.206796,0.58928 1.92834,0.7641 1.203879,0.50316 1.350161,-1.22565 0.07622,-0.7641 -0.668301,0 -1.336487,0 -2.004563,0 z m 4.467697,0 c -0.383358,1.29409 1.206795,0.58928 1.928338,0.7641 1.203881,0.50316 1.35005,-1.22565 0.07622,-0.7641 -0.668301,0 -1.336599,0 -2.004786,0 z m 4.665765,0 c -0.383472,1.29409 1.206569,0.58928 1.928225,0.7641 1.197155,0 2.394309,0 3.591577,0 0.383246,-1.29411 -1.206795,-0.58928 -1.92845,-0.7641 -1.197156,0 -2.39431,0 -3.591352,0 z m 12.612608,0 c -0.383247,1.29409 1.206681,0.58928 1.92845,0.7641 2.086388,0 4.172777,0 6.25928,0 0.383246,-1.29411 -1.206682,-0.58928 -1.928451,-0.7641 -2.086391,0 -4.172891,0 -6.259279,0 z m -41.2687682,1.1555 c -0.3831344,1.29411 1.2067946,0.58928 1.9284502,0.76411 2.0852685,0 4.1706491,0 6.255916,0 0.383247,-1.2941 -1.206793,-0.58928 -1.9283366,-0.76411 -2.0853806,0 -4.170537,0 -6.2560296,0 z m 10.1901622,0 c -0.38336,1.29411 1.206681,0.58928 1.928338,0.76411 1.197153,0 2.394309,0 3.591463,0 0.383247,-1.2941 -1.206682,-0.58928 -1.92845,-0.76411 -1.197154,0 -2.394198,0 -3.591351,0 z m 7.480535,0 c -0.383248,1.29411 1.206681,0.58928 1.928449,0.76411 0.93934,0 1.878793,0 2.818134,0 0.383359,-1.2941 -1.206682,-0.58928 -1.928338,-0.76411 -0.93934,0 -1.878793,0 -2.818245,0 z m 6.319698,0 c -0.383358,1.29411 1.206795,0.58928 1.928338,0.76411 0.939453,0 1.878905,0 2.818245,0 0.383246,-1.2941 -1.206683,-0.58928 -1.92845,-0.76411 -0.93934,0 -1.878792,0 -2.818133,0 z m 6.641407,0 c -0.383359,1.29411 1.206795,0.58928 1.928337,0.76411 1.197154,0 2.39431,0 3.591463,0 0.383359,-1.2941 -1.20657,-0.58928 -1.928338,-0.76411 -1.197154,0 -2.394309,0 -3.591462,0 z m 7.525594,0 c -0.383358,1.29411 1.206683,0.58928 1.928452,0.76411 2.085269,0 4.170537,0 6.255693,0 0.38347,-1.2941 -1.206681,-0.58928 -1.928227,-0.76411 -2.085267,0 -4.170647,0 -6.255918,0 z m -41.36146623,0.39324 c 0.04035353,1.06159 1.96656183,-0.23956 0.26162537,0 H 0.19317383 Z m 51.77469623,0 c 0.04035,1.06159 1.966561,-0.23956 0.261512,0 h -0.148186 z m -51.77469623,0.76246 c -0.38324641,1.294 1.20690673,0.58903 1.92833803,0.76393 0.7126882,-0.22157 2.4006986,0.54467 2.2011728,-0.60104 -0.501953,-0.39405 -1.7376677,-0.0447 -2.512007,-0.16289 -0.539168,0 -1.07822378,0 -1.61750383,0 z m 6.31902593,0 c -0.3833585,1.294 1.2067947,0.58903 1.9283382,0.76393 2.8969341,0 5.7938691,0 8.6906911,0 0.383695,-1.28472 -1.181236,-0.59551 -1.899753,-0.76393 -2.906352,0 -5.8129256,0 -8.7192763,0 z m 12.4606083,0 c -0.383248,1.294 1.206906,0.58903 1.928449,0.76393 0.69879,-0.21071 2.289614,0.48203 2.275828,-0.45079 -0.171951,-0.72139 -1.655167,-0.11433 -2.34286,-0.31314 -0.620434,0 -1.240983,0 -1.861417,0 z m 4.735037,0 c -0.383133,1.294 1.20702,0.58903 1.928451,0.76393 0.828704,-0.86188 -0.748109,-0.86216 -1.453625,-0.76393 -0.158274,0 -0.316549,0 -0.474826,0 z m 3.679794,0 c -0.383246,1.294 1.206907,0.58903 1.928338,0.76393 0.829152,-0.86159 -0.747773,-0.86233 -1.453288,-0.76393 -0.158387,0 -0.316662,0 -0.47505,0 z m 2.637438,0 c -0.383245,1.28371 1.179444,0.5963 1.897962,0.76393 0.693071,-0.22694 2.327389,0.49957 2.306317,-0.45079 -0.179686,-0.72382 -1.679045,-0.11063 -2.373459,-0.31314 -0.610237,0 -1.220583,0 -1.83082,0 z m 5.979834,0 c -0.383582,1.28471 1.18146,0.59552 1.899865,0.76393 2.906464,0 5.812928,0 8.719276,0 0.383249,-1.29401 -1.207017,-0.58902 -1.928448,-0.76393 -2.896825,0 -5.79376,0 -8.690693,0 z m 12.83668,0 c -0.383247,1.294 1.20702,0.58903 1.92845,0.76393 0.71213,-0.22214 2.401595,0.54563 2.201061,-0.60104 -0.500606,-0.39387 -1.734529,-0.045 -2.507636,-0.16289 -0.540623,0 -1.081249,0 -1.621875,0 z m -48.64841723,1.15551 c -0.3833585,1.29412 1.20679463,0.58929 1.92833803,0.76412 1.7714078,0 3.5429276,0 5.3143353,0 0.3833585,-1.29412 -1.2067946,-0.5893 -1.9283381,-0.76412 -1.7714077,0 -3.5429275,0 -5.31433523,0 z m 9.43386983,0 c -0.3833585,1.29412 1.2066824,0.58929 1.9283364,0.76412 1.199957,0 2.400026,0 3.599872,0 0.383358,-1.29412 -1.206683,-0.5893 -1.928339,-0.76412 -1.199845,0 -2.399912,0 -3.5998694,0 z m 7.3722524,0 c -0.383359,1.29412 1.206682,0.58929 1.928338,0.76412 1.193568,0 2.386912,0 3.580591,0 0.383246,-1.29412 -1.206794,-0.5893 -1.928338,-0.76412 -1.19368,0 -2.387135,0 -3.580591,0 z m 6.708549,0 c -0.383133,1.29412 1.206796,0.58929 1.928451,0.76412 0.828704,-0.8619 -0.747997,-0.86245 -1.453625,-0.76412 -0.158274,0 -0.316549,0 -0.474826,0 z m 3.679794,0 c -0.383358,1.29412 1.206795,0.58929 1.928338,0.76412 0.829152,-0.86161 -0.747549,-0.86261 -1.453288,-0.76412 -0.158387,0 -0.316662,0 -0.47505,0 z m 3.306187,0 c -0.383246,1.29412 1.206682,0.58929 1.92845,0.76412 1.193455,0 2.387022,0 3.580589,0 0.38336,-1.29412 -1.206791,-0.5893 -1.928337,-0.76412 -1.193568,0 -2.387135,0 -3.580702,0 z m 7.286949,0 c -0.383246,1.29412 1.206908,0.58929 1.92845,0.76412 1.200182,0 2.400141,0 3.600209,0 0.383246,-1.29412 -1.206795,-0.5893 -1.92845,-0.76412 -1.199956,0 -2.400028,0 -3.600209,0 z m 7.747653,0 c -0.383358,1.29412 1.206795,0.58929 1.92845,0.76412 1.771297,0 3.542818,0 5.314224,0 0.383358,-1.29412 -1.206683,-0.5893 -1.928339,-0.76412 -1.771405,0 -3.542926,0 -5.314335,0 z m -43.3504471,1.15552 c -0.3832464,1.29411 1.2067947,0.58928 1.9284502,0.76411 2.0896402,0 4.1790561,0 6.2686959,0 0.383359,-1.2941 -1.2067943,-0.58928 -1.9283378,-0.76411 -2.0896401,0 -4.1791681,0 -6.2688083,0 z m 10.3636811,0 c 0.11837,0.31112 0.967252,-0.0859 0,0 z m 2.284234,0 c -0.383358,1.29411 1.206683,0.58928 1.928339,0.76411 1.193343,0 2.386687,0 3.58003,0 0.383358,-1.2941 -1.206683,-0.58928 -1.92845,-0.76411 -1.193232,0 -2.386688,0 -3.579919,0 z m 8.681949,0 c -0.383133,1.29411 1.206796,0.58928 1.928451,0.76411 0.828704,-0.8619 -0.747997,-0.86244 -1.453625,-0.76411 -0.158274,0 -0.316549,0 -0.474826,0 z m 3.679794,0 c -0.383358,1.29411 1.206795,0.58928 1.928338,0.76411 0.829152,-0.8616 -0.747549,-0.86261 -1.453288,-0.76411 -0.158387,0 -0.316662,0 -0.47505,0 z m 5.280147,0 c -0.383246,1.29411 1.206795,0.58928 1.92845,0.76411 1.193455,0 2.386801,0 3.580255,0 0.383246,-1.2941 -1.206795,-0.58928 -1.92845,-0.76411 -1.193455,0 -2.3868,0 -3.580255,0 z m 7.288967,0 c 0.764028,0.20972 0.05605,0.0436 0,0 z m 2.632396,0 c -0.383358,1.29411 1.206796,0.58928 1.928338,0.76411 2.089639,0 4.179167,0 6.26881,0 0.383358,-1.2941 -1.206683,-0.58928 -1.928451,-0.76411 -2.089529,0 -4.179058,0 -6.268697,0 z m -37.0801828,1.1557 c -0.3832464,1.29401 1.2069068,0.58902 1.9283381,0.76392 1.6083123,0 3.2165127,0 4.8248227,0 0.383248,-1.294 -1.206905,-0.58902 -1.928336,-0.76392 -1.6083124,0 -3.2165125,0 -4.8248248,0 z m 8.2084678,0 c -0.382575,1.27504 1.1568,0.60312 1.874085,0.76392 0.98967,0 1.979228,0 2.968786,0 0.383358,-1.294 -1.206795,-0.58902 -1.928339,-0.76392 -0.97151,0 -1.943022,0 -2.914532,0 z m 9.990411,0 c -0.383133,1.29401 1.20702,0.58902 1.928451,0.76392 0.828704,-0.86186 -0.748109,-0.86215 -1.453625,-0.76392 -0.158274,0 -0.316549,0 -0.474826,0 z m 3.679794,0 c -0.383246,1.29401 1.206907,0.58902 1.928338,0.76392 0.829152,-0.86158 -0.747773,-0.86233 -1.453288,-0.76392 -0.158387,0 -0.316662,0 -0.47505,0 z m 7.254108,0 c -0.383246,1.29401 1.206905,0.58902 1.928451,0.76392 0.971508,0 1.943021,0 2.914643,0 0.382686,-1.27505 -1.156801,-0.60313 -1.873972,-0.76392 -0.989781,0 -1.979454,0 -2.969122,0 z m 6.260624,0 c -0.383357,1.29401 1.206794,0.58902 1.92834,0.76392 1.60831,0 3.216623,0 4.824825,0 0.383246,-1.294 -1.206908,-0.58902 -1.928341,-0.76392 -1.608311,0 -3.216624,0 -4.824824,0 z m -32.2628678,1.15533 c -0.011209,0.91241 1.4386032,0.35287 1.9259838,0.76412 0.747101,0.24742 2.395094,-0.18132 1.332115,-0.76412 -1.085958,0 -2.1720285,0 -3.2580988,0 z m 4.8795248,0 c -0.383359,1.2941 1.206683,0.58928 1.928339,0.76412 0.503298,-0.0649 1.98203,-0.77558 0.397705,-0.76412 -0.775347,0 -1.550695,0 -2.326044,0 z m 10.188817,0 c -0.383133,1.2941 1.206796,0.58928 1.928451,0.76412 0.828704,-0.86191 -0.747997,-0.86246 -1.453625,-0.76412 -0.158274,0 -0.316549,0 -0.474826,0 z m 3.679794,0 c -0.383358,1.2941 1.206795,0.58928 1.928338,0.76412 0.829152,-0.86161 -0.747549,-0.86263 -1.453288,-0.76412 -0.158387,0 -0.316662,0 -0.47505,0 z m 9.246899,0 c -0.09752,1.36949 1.862876,-0.29481 0.123751,0 z m 0.870739,0 c -0.383246,1.2941 1.206795,0.58928 1.928452,0.76412 0.979803,-0.75473 -0.651486,-0.92372 -1.382223,-0.76412 -0.181927,0 -0.364078,0 -0.546229,0 z m 3.464687,0 c -0.383247,1.2941 1.206681,0.58928 1.92845,0.76412 0.148634,-0.37597 2.401371,-0.15336 1.32976,-0.76412 -1.086069,0 -2.172141,0 -3.25821,0 z m -31.2450631,1.1557 c -0.3832464,1.29411 1.2067951,0.58929 1.9284501,0.76411 1.11286,-0.47968 -0.374615,-1.07952 -1.142677,-0.76411 -0.26185,0 -0.5238114,0 -0.7857731,0 z m 3.5956101,0 c -0.383245,1.29411 1.206682,0.58929 1.92845,0.76411 1.112301,-0.48011 -0.375176,-1.07931 -1.143014,-0.76411 -0.261849,0 -0.523586,0 -0.785436,0 z m 10.387334,0 c -0.383133,1.29411 1.206796,0.58929 1.928451,0.76411 0.828704,-0.86189 -0.747997,-0.86245 -1.453625,-0.76411 -0.158274,0 -0.316549,0 -0.474826,0 z m 3.679794,0 c -0.383358,1.29411 1.206795,0.58929 1.928338,0.76411 0.829152,-0.86161 -0.747549,-0.86262 -1.453288,-0.76411 -0.158387,0 -0.316662,0 -0.47505,0 z m 10.225134,0 c -0.383356,1.29411 1.206795,0.58929 1.928341,0.76411 1.112411,-0.48011 -0.375064,-1.07931 -1.143016,-0.76411 -0.261738,0 -0.523475,0 -0.785325,0 z m 3.5575,0 c -0.383245,1.29411 1.206683,0.58929 1.928451,0.76411 1.113084,-0.47947 -0.374391,-1.07961 -1.142565,-0.76411 -0.261963,0 -0.523922,0 -0.785886,0 z m -31.6455704,1.15569 c -0.3832464,1.29401 1.2067944,0.58903 1.9283364,0.76394 1.113197,-0.47949 -0.374389,-1.07934 -1.142451,-0.76394 -0.2619621,0 -0.5240358,0 -0.7858854,0 z m 3.5975164,0 c -0.383247,1.29401 1.206906,0.58903 1.92845,0.76394 1.11118,-0.48101 -0.376409,-1.07865 -1.143686,-0.76394 -0.261514,0 -0.52314,0 -0.784764,0 z m 10.585626,0 c -0.383133,1.29401 1.20702,0.58903 1.928451,0.76394 0.828704,-0.86188 -0.748109,-0.86216 -1.453625,-0.76394 -0.158274,0 -0.316549,0 -0.474826,0 z m 3.679794,0 c -0.383246,1.29401 1.206907,0.58903 1.928338,0.76394 0.829152,-0.86159 -0.747773,-0.86234 -1.453288,-0.76394 -0.158387,0 -0.316662,0 -0.47505,0 z m 10.424101,0 c -0.38336,1.29401 1.206907,0.58903 1.928337,0.76394 1.111629,-0.4808 -0.376071,-1.07874 -1.14346,-0.76394 -0.261627,0 -0.523253,0 -0.784877,0 z m 3.558844,0 c -0.383359,1.29401 1.206682,0.58903 1.928228,0.76394 1.112971,-0.4797 -0.374617,-1.07924 -1.142456,-0.76394 -0.262072,0 -0.523922,0 -0.785772,0 z m -32.0463039,1.15534 c -0.3832464,1.29411 1.2069069,0.58928 1.9284499,0.7641 1.113308,-0.47944 -0.374167,-1.0796 -1.1423408,-0.7641 -0.2620737,0 -0.5240354,0 -0.7861091,0 z m 3.5995329,0 c -0.383245,1.29411 1.206796,0.58928 1.92845,0.7641 1.110172,-0.48162 -0.377193,-1.07862 -1.144245,-0.7641 -0.261401,0 -0.522804,0 -0.784205,0 z m 10.784032,0 c -0.383133,1.29411 1.206796,0.58928 1.928451,0.7641 0.828704,-0.86188 -0.747997,-0.86244 -1.453625,-0.7641 -0.158274,0 -0.316549,0 -0.474826,0 z m 3.679794,0 c -0.383358,1.29411 1.206795,0.58928 1.928338,0.7641 0.829152,-0.8616 -0.747549,-0.86261 -1.453288,-0.7641 -0.158387,0 -0.316662,0 -0.47505,0 z m 10.623067,0 c -0.383246,1.29411 1.206795,0.58928 1.928451,0.7641 1.110281,-0.48162 -0.377306,-1.07862 -1.144249,-0.7641 -0.2614,0 -0.52269,0 -0.784202,0 z m 3.559853,0 c -0.38336,1.29411 1.206681,0.58928 1.928337,0.7641 1.11331,-0.47946 -0.374165,-1.0796 -1.142339,-0.7641 -0.261963,0 -0.524035,0 -0.785998,0 z m -32.446253,1.15551 c -0.3832465,1.2941 1.206795,0.58927 1.928338,0.76411 1.113309,-0.47946 -0.374167,-1.0796 -1.142341,-0.76411 -0.2620738,0 -0.5239233,0 -0.785997,0 z m 3.601104,0 c -0.383248,1.2941 1.206681,0.58927 1.928449,0.76411 1.109386,-0.48228 -0.378091,-1.07832 -1.144806,-0.76411 -0.26129,0 -0.522466,0 -0.783643,0 z m 10.776071,0 c -0.383357,1.2941 1.206796,0.58927 1.92834,0.76411 1.182469,-0.42816 -0.303101,-1.1023 -1.098625,-0.76411 -0.276534,0 -0.55318,0 -0.829715,0 z m 3.886158,0 c -0.383358,1.2941 1.206795,0.58927 1.928338,0.76411 1.182132,-0.42835 -0.303436,-1.10221 -1.098736,-0.76411 -0.276534,0 -0.553068,0 -0.829602,0 z m 10.822256,0 c -0.383247,1.2941 1.206682,0.58927 1.928338,0.76411 1.10916,-0.4825 -0.378202,-1.07822 -1.144919,-0.76411 -0.261177,0 -0.522242,0 -0.783419,0 z m 3.560751,0 c -0.383359,1.2941 1.206682,0.58927 1.92845,0.76411 1.113195,-0.47946 -0.374393,-1.07961 -1.142567,-0.76411 -0.261961,0 -0.523923,0 -0.785883,0 z m -32.8465384,1.1557 c -0.3833585,1.294 1.2067944,0.58902 1.9283384,0.76393 1.113195,-0.47949 -0.374391,-1.07934 -1.1424534,-0.76393 -0.2619617,0 -0.5240354,0 -0.785885,0 z m 3.6030084,0 c -0.383247,1.294 1.206907,0.58902 1.928451,0.76393 1.108265,-0.48318 -0.379323,-1.07764 -1.145481,-0.76393 -0.261065,0 -0.522018,0 -0.78297,0 z m 9.608288,0 c -0.383247,1.294 1.206905,0.58902 1.928337,0.76393 0.713922,0.049 2.358663,0.16904 1.602484,-0.76393 -1.176866,0 -2.353956,0 -3.530821,0 z m 5.252235,0 c -0.383246,1.294 1.206907,0.58902 1.928338,0.76393 0.713923,0.049 2.358552,0.169 1.602484,-0.76393 -1.17709,0 -2.353844,0 -3.530822,0 z m 11.021219,0 c -0.383246,1.294 1.206908,0.58902 1.928451,0.76393 1.108265,-0.48318 -0.379435,-1.07764 -1.145481,-0.76393 -0.260951,0 -0.522015,0 -0.78297,0 z m 3.561985,0 c -0.383246,1.294 1.206908,0.58902 1.928451,0.76393 1.113196,-0.47948 -0.37439,-1.07934 -1.142455,-0.76393 -0.262073,0 -0.523923,0 -0.785996,0 z m -33.2470458,1.1555 c -0.3832464,1.29412 1.2067946,0.58929 1.9284498,0.76412 1.113532,-0.47923 -0.374054,-1.07969 -1.1423407,-0.76412 -0.2619616,0 -0.5239233,0 -0.7861091,0 z m 3.6049138,0 c -0.383358,1.29412 1.206682,0.58929 1.92845,0.76412 1.107033,-0.48402 -0.380555,-1.07752 -1.146264,-0.76412 -0.260729,0 -0.521458,0 -0.782186,0 z m 8.440502,0 c -0.383248,1.29412 1.206793,0.58929 1.92845,0.76412 0.671325,-0.23335 2.306652,0.50965 2.260246,-0.45077 -0.179461,-0.72414 -1.679043,-0.11086 -2.37346,-0.31335 -0.605079,0 -1.210046,0 -1.815236,0 z m 7.475154,0 c -0.383246,1.29412 1.206795,0.58929 1.928451,0.76412 0.671323,-0.23338 2.30654,0.5097 2.260021,-0.45077 -0.179351,-0.72414 -1.679045,-0.11086 -2.373347,-0.31335 -0.60508,0 -1.210046,0 -1.815125,0 z m 10.36357,0 c -0.383358,1.29412 1.206683,0.58929 1.928339,0.76412 1.107143,-0.48403 -0.380445,-1.07751 -1.146154,-0.76412 -0.260839,0 -0.521568,0 -0.782185,0 z m 3.562994,0 c -0.383359,1.29412 1.206791,0.58929 1.928338,0.76412 1.113644,-0.47925 -0.373943,-1.07969 -1.142117,-0.76412 -0.262188,0 -0.524149,0 -0.786221,0 z m -15.895928,0.48633 c -0.0908,0.78274 1.721302,-0.13672 0,0 z m -17.7514041,0.66919 c -0.3833585,1.29412 1.2066825,0.5893 1.9283381,0.76411 1.113533,-0.47924 -0.3739427,-1.0797 -1.1421169,-0.76411 -0.2621858,0 -0.5242596,0 -0.7862212,0 z m 3.6069321,0 c -0.383359,1.29412 1.20657,0.5893 1.928338,0.76411 1.105911,-0.48489 -0.381565,-1.07713 -1.146938,-0.76411 -0.260504,0 -0.521007,0 -0.7814,0 z m 7.272826,0 c -0.383358,1.29412 1.206683,0.5893 1.928339,0.76411 0.671662,-0.23327 2.306989,0.50953 2.260806,-0.45078 -0.179349,-0.72412 -1.679043,-0.11075 -2.373349,-0.31333 -0.605303,0 -1.210606,0 -1.815796,0 z m 5.509825,0 c -0.381451,1.25956 1.117122,0.61454 1.831379,0.76411 0.745083,0.27002 2.299927,-0.20471 1.250399,-0.76411 -1.027334,0 -2.054555,0 -3.081778,0 z m 4.696591,0 c -0.383246,1.29412 1.206795,0.5893 1.928451,0.76411 0.671549,-0.23327 2.306764,0.50953 2.260806,-0.45078 -0.17946,-0.72412 -1.679154,-0.11075 -2.373459,-0.31333 -0.605305,0 -1.210496,0 -1.815798,0 z m 9.197131,0 c -0.383359,1.29412 1.206682,0.5893 1.928338,0.76411 1.106245,-0.48467 -0.38123,-1.07722 -1.146827,-0.76411 -0.260503,0 -0.521008,0 -0.781511,0 z m 3.564337,0 c -0.383359,1.29412 1.206682,0.5893 1.928337,0.76411 1.113532,-0.47923 -0.373942,-1.0797 -1.142229,-0.76411 -0.261963,0 -0.524148,0 -0.786108,0 z m -34.0479526,1.1557 c -0.3832464,1.29401 1.2069068,0.58902 1.9284506,0.76392 1.113868,-0.47903 -0.3738309,-1.07952 -1.1421172,-0.76392 -0.2620738,0 -0.5242596,0 -0.7863334,0 z m 3.6087246,0 c -0.383245,1.29401 1.206908,0.58902 1.928338,0.76392 1.105128,-0.48556 -0.38246,-1.07654 -1.147497,-0.76392 -0.260167,0 -0.520561,0 -0.780841,0 z m 6.105265,0 c -0.383358,1.29401 1.206795,0.58902 1.928339,0.76392 0.671997,-0.23315 2.3071,0.50938 2.261478,-0.45077 -0.179572,-0.72383 -1.679042,-0.11064 -2.373459,-0.31315 -0.605415,0 -1.210942,0 -1.816358,0 z m 5.514085,0 c -0.383245,1.29401 1.206908,0.58902 1.928451,0.76392 1.391188,0 2.782376,0 4.173564,0 0.387842,-1.25201 -1.093693,-0.61044 -1.790352,-0.76392 -1.437146,0 -2.874404,0 -4.311663,0 z m 7.423704,0 c -0.383247,1.29401 1.206906,0.58902 1.92834,0.76392 0.672109,-0.23313 2.307213,0.50933 2.261702,-0.45077 -0.179685,-0.72383 -1.679154,-0.11064 -2.373349,-0.31315 -0.605527,0 -1.211167,0 -1.816693,0 z m 8.031025,0 c -0.383358,1.29401 1.206796,0.58902 1.928338,0.76392 1.105124,-0.48556 -0.382572,-1.07654 -1.147496,-0.76392 -0.260281,0 -0.520673,0 -0.780842,0 z m 3.565346,0 c -0.383246,1.29401 1.206907,0.58902 1.928451,0.76392 1.113532,-0.47925 -0.374056,-1.07941 -1.142231,-0.76392 -0.262072,0 -0.524147,0 -0.78622,0 z m -34.4025018,1.15552 c -0.3499547,1.26024 1.1890839,0.60706 1.9284502,0.76392 1.0602886,-0.66572 -0.5832205,-0.96822 -1.3362622,-0.76392 -0.197396,0 -0.394792,0 -0.592188,0 z m 3.5646728,0 c -0.383359,1.294 1.206794,0.58903 1.928225,0.76392 1.104455,-0.48622 -0.383357,-1.07625 -1.148057,-0.76392 -0.259943,0 -0.52,0 -0.780168,0 z m 4.937591,0 c -0.38336,1.294 1.206681,0.58903 1.928225,0.76392 0.67256,-0.23304 2.307662,0.50917 2.262489,-0.45078 -0.179575,-0.72382 -1.679045,-0.11063 -2.373348,-0.31314 -0.605865,0 -1.211615,0 -1.817366,0 z m 5.518456,0 c -0.383246,1.294 1.206907,0.58903 1.928339,0.76392 0.660901,-0.2367 2.297235,0.51481 2.238612,-0.45078 -0.179686,-0.72382 -1.679155,-0.11063 -2.373461,-0.31314 -0.597793,0 -1.195698,0 -1.79349,0 z m 4.658703,0 c -0.383247,1.294 1.206907,0.58903 1.928338,0.76392 0.660901,-0.2367 2.29746,0.51481 2.238612,-0.45078 -0.179573,-0.72382 -1.679043,-0.11063 -2.37346,-0.31314 -0.59768,0 -1.195585,0 -1.79349,0 z m 5.492003,0 c -0.383246,1.294 1.206908,0.58903 1.92845,0.76392 0.672223,-0.23305 2.307439,0.5092 2.262264,-0.45078 -0.179687,-0.72382 -1.679155,-0.11063 -2.37346,-0.31314 -0.605752,0 -1.211501,0 -1.817254,0 z m 6.864694,0 c -0.383359,1.294 1.206795,0.58903 1.928337,0.76392 1.104007,-0.48643 -0.383693,-1.07615 -1.148278,-0.76392 -0.260056,0 -0.520003,0 -0.780059,0 z m 3.56647,0 c -0.349956,1.26024 1.189083,0.60706 1.928337,0.76392 1.060401,-0.66572 -0.583221,-0.96822 -1.336264,-0.76392 -0.197394,0 -0.394792,0 -0.592073,0 z m -33.4673106,1.15551 c -0.2426816,1.22692 1.8764386,-0.1075 0.3626213,0 -0.1209485,0 -0.2416728,0 -0.3626213,0 z m 2.2309886,0 c -0.383245,1.2941 1.206795,0.58927 1.928451,0.76411 1.102659,-0.48728 -0.384704,-1.07602 -1.148956,-0.76411 -0.259832,0 -0.519664,0 -0.779495,0 z m 3.769805,0 c -0.38336,1.2941 1.206681,0.58927 1.928338,0.76411 0.672782,-0.23292 2.307884,0.50898 2.263159,-0.45078 -0.17946,-0.72413 -1.679042,-0.11086 -2.37346,-0.31333 -0.605974,0 -1.212175,0 -1.818037,0 z m 5.52294,0 c -0.383358,1.2941 1.206683,0.58927 1.928337,0.76411 0.661463,-0.23651 2.297686,0.5145 2.239845,-0.45078 -0.179572,-0.72413 -1.679042,-0.11086 -2.373459,-0.31333 -0.598353,0 -1.196482,0 -1.794723,0 z m 7.380996,0 c -0.383358,1.2941 1.206683,0.58927 1.928337,0.76411 0.661462,-0.23651 2.297799,0.5145 2.239847,-0.45078 -0.17935,-0.72413 -1.679044,-0.11086 -2.373349,-0.31333 -0.59824,0 -1.196593,0 -1.794835,0 z m 5.49671,0 c -0.383246,1.2941 1.206682,0.58927 1.928451,0.76411 0.672673,-0.23292 2.307773,0.50898 2.263049,-0.45078 -0.179348,-0.72413 -1.679155,-0.11086 -2.373347,-0.31333 -0.606087,0 -1.212175,0 -1.818153,0 z m 5.698368,0 c -0.38336,1.2941 1.206681,0.58927 1.928338,0.76411 1.103107,-0.48708 -0.384481,-1.07612 -1.148732,-0.76411 -0.259942,0 -0.519775,0 -0.779606,0 z m 3.5677,0 c -0.215445,1.24531 1.90435,-0.16469 0.294916,0 -0.09752,0 -0.196611,0 -0.294916,0 z m -29.032794,1.15551 c -0.383359,1.29412 1.206571,0.58929 1.928339,0.76412 0.673231,-0.23281 2.308222,0.50877 2.264057,-0.45079 -0.179462,-0.72411 -1.679044,-0.11086 -2.37346,-0.31333 -0.606313,0 -1.212624,0 -1.818936,0 z m 5.527089,0 c -0.383359,1.29412 1.206682,0.58929 1.928337,0.76412 0.662246,-0.23625 2.298471,0.51409 2.241415,-0.45079 -0.179462,-0.72411 -1.679044,-0.11086 -2.37346,-0.31333 -0.598802,0 -1.197603,0 -1.796292,0 z m 10.10329,0 c -0.383359,1.29412 1.206682,0.58929 1.928338,0.76412 0.662244,-0.23625 2.298469,0.51409 2.241413,-0.45079 -0.179348,-0.72411 -1.679042,-0.11086 -2.373347,-0.31333 -0.5988,0 -1.197604,0 -1.796404,0 z m 5.501531,0 c -0.38336,1.29412 1.206681,0.58929 1.92845,0.76412 0.67312,-0.23281 2.308221,0.50877 2.263944,-0.45079 -0.179347,-0.72411 -1.679041,-0.11086 -2.373347,-0.31333 -0.606312,0 -1.212734,0 -1.819047,0 z m -23.622732,0.11563 c -0.29032,1.19211 1.339402,0.43939 2.01947,0.64849 0.367441,-1.21394 -1.388161,-0.42366 -2.01947,-0.64849 z m 28.286591,0 c -0.290323,1.19205 1.339175,0.43942 2.019357,0.64849 0.367442,-1.2139 -1.388162,-0.42367 -2.019357,-0.64849 z m -26.258602,1.04008 c -0.383246,1.26973 1.142453,0.60584 1.856711,0.76391 0.829489,0.42254 2.234352,-0.52968 0.98799,-0.76391 -0.948197,0 -1.896504,0 -2.844701,0 z m 4.628214,0 c -0.383358,1.29399 1.206906,0.58901 1.928337,0.76391 0.66292,-0.23606 2.299031,0.51386 2.242537,-0.45077 -0.179573,-0.72382 -1.679043,-0.11064 -2.373349,-0.31314 -0.599137,0 -1.198388,0 -1.797525,0 z m 12.825471,0 c -0.383245,1.29399 1.206908,0.58901 1.928338,0.76391 0.662808,-0.23606 2.29892,0.51386 2.242538,-0.45077 -0.179577,-0.72382 -1.679046,-0.11064 -2.37335,-0.31314 -0.599248,0 -1.198387,0 -1.797526,0 z m 5.506576,0 c -0.38246,1.27605 1.160051,0.60242 1.877895,0.76391 0.831059,0.42999 2.205433,-0.5386 0.966916,-0.76391 -0.948196,0 -1.896503,0 -2.844811,0 z m -21.219341,1.15551 c 0.0482,0.20281 0.369795,-0.0613 0,0 z m 1.525363,0 c -0.387843,1.25217 1.09358,0.61068 1.790574,0.76411 0.696885,-0.19846 2.180436,0.39994 2.381756,-0.30053 0.108731,-0.96875 -1.470775,-0.22807 -2.086053,-0.46358 -0.695538,0 -1.390851,0 -2.086277,0 z m 15.547988,0 c -0.387953,1.25181 1.092796,0.61086 1.789343,0.76411 0.697444,-0.19826 2.180997,0.39967 2.382876,-0.30053 0.10873,-0.96889 -1.471444,-0.22804 -2.087174,-0.46358 -0.694978,0 -1.390066,0 -2.085045,0 z m 5.511282,0 c 0.131151,0.17871 0.345585,-0.0956 0,0 z m -20.534674,1.15551 c -0.382014,1.26052 1.119136,0.61353 1.833058,0.76393 1.151196,-0.1047 0.09752,-1.21957 -0.741832,-0.76393 -0.363743,0 -0.727484,0 -1.091226,0 z m 16.383532,0 c -0.387954,1.25179 1.093133,0.61056 1.789568,0.76393 1.270574,-0.13672 0.04035,-1.23592 -0.837115,-0.76393 -0.317447,0 -0.635007,0 -0.952453,0 z"
       id="rect64365-1"
       inkscape:connector-curvature="0" />
  </g>
</svg>
